<svg xmlns="http://www.w3.org/2000/svg" width="307" height="73" viewBox="0 0 307 73">
  <g id="Group_12685" data-name="Group 12685" transform="translate(-182 -213)">
    <rect id="Image_96" data-name="Image 96" width="307" height="73" transform="translate(182 213)" fill="none"/>
    <g id="Binance_logo_1_" data-name="Binance_logo (1)" transform="translate(196.127 227.358)">
      <path id="Path_5741" data-name="Path 5741" d="M28.868,18.609l8.6-8.6,8.6,8.6,5-5L37.468,0l-13.6,13.6Z" transform="translate(-15.873)" fill="#f3ba2f"/>
      <rect id="Rectangle_690" data-name="Rectangle 690" width="7.077" height="7.077" transform="translate(4.458 17.137) rotate(45)" fill="#f3ba2f"/>
      <path id="Path_5742" data-name="Path 5742" d="M28.854,73.4l8.6,8.6,8.6-8.6,5.007,5,0,0L37.454,92.009,23.85,78.4l-.007-.007Z" transform="translate(-15.859 -47.725)" fill="#f3ba2f"/>
      <rect id="Rectangle_691" data-name="Rectangle 691" width="7.077" height="7.077" transform="translate(43.738 22.144) rotate(135)" fill="#f3ba2f"/>
      <path id="Path_5743" data-name="Path 5743" d="M58.39,53.858h0L53.314,48.78l-3.753,3.753h0l-.431.431-.889.889h0l-.007.007.007.007,5.073,5.073,5.078-5.078,0,0Z" transform="translate(-31.719 -31.718)" fill="#f3ba2f"/>
      <path id="Path_5744" data-name="Path 5744" d="M148.37,30.679h10.884q4.052,0,6.128,2.08a5.428,5.428,0,0,1,1.607,3.992v.067a5.763,5.763,0,0,1-.25,1.778,5.53,5.53,0,0,1-.667,1.392,5.3,5.3,0,0,1-.966,1.09,6.48,6.48,0,0,1-1.183.805,7.918,7.918,0,0,1,3.206,2.1,5.367,5.367,0,0,1,1.169,3.674v.067a6.1,6.1,0,0,1-.619,2.818,5.475,5.475,0,0,1-1.775,2.013,8.318,8.318,0,0,1-2.78,1.208,14.975,14.975,0,0,1-3.6.4H148.37Zm9.8,9.494a5.379,5.379,0,0,0,2.717-.587,2.028,2.028,0,0,0,1.006-1.9v-.067a2.068,2.068,0,0,0-.872-1.795,4.309,4.309,0,0,0-2.516-.621h-5.1v4.965Zm1.376,9.461a4.963,4.963,0,0,0,2.684-.62,2.126,2.126,0,0,0,.973-1.929v-.067a2.216,2.216,0,0,0-.906-1.862,4.881,4.881,0,0,0-2.919-.687H153.4v5.166h6.139Z" transform="translate(-96.831 -19.949)" fill="#fff"/>
      <path id="Path_5745" data-name="Path 5745" d="M223.875,30.679h5.167V54.163h-5.167Z" transform="translate(-145.927 -19.949)" fill="#fff"/>
      <path id="Path_5746" data-name="Path 5746" d="M261.02,30.679h4.763l11,14.459V30.679h5.1V54.163h-4.394L266.119,39.234V54.163h-5.1Z" transform="translate(-170.08 -19.949)" fill="#fff"/>
      <path id="Path_5747" data-name="Path 5747" d="M346.686,30.2h4.763l10.065,23.651h-5.4l-2.147-5.267h-9.93l-2.147,5.267h-5.268Zm5.435,13.821L349,36.406l-3.119,7.615Z" transform="translate(-219.238 -19.637)" fill="#fff"/>
      <path id="Path_5748" data-name="Path 5748" d="M423.738,30.679H428.5l11,14.459V30.679h5.1V54.163H440.21L428.837,39.234V54.163h-5.1Z" transform="translate(-275.885 -19.949)" fill="#fff"/>
      <path id="Path_5749" data-name="Path 5749" d="M514.167,53.816a12.164,12.164,0,0,1-4.8-.939,11.578,11.578,0,0,1-6.34-6.408,12.37,12.37,0,0,1-.906-4.731v-.067a12.243,12.243,0,0,1,.906-4.713,12.106,12.106,0,0,1,2.516-3.858,11.662,11.662,0,0,1,3.858-2.617,12.562,12.562,0,0,1,4.966-.956,15.571,15.571,0,0,1,3,.268,12.573,12.573,0,0,1,2.466.738,10.742,10.742,0,0,1,2.047,1.141,13.948,13.948,0,0,1,1.744,1.476l-3.287,3.791a12.464,12.464,0,0,0-2.8-1.946,7.14,7.14,0,0,0-3.2-.7,6.5,6.5,0,0,0-4.9,2.147,7.371,7.371,0,0,0-1.409,2.332,7.937,7.937,0,0,0-.5,2.835v.067a8.067,8.067,0,0,0,.5,2.851,7.461,7.461,0,0,0,1.393,2.348,6.452,6.452,0,0,0,4.915,2.181,7.191,7.191,0,0,0,3.4-.738,13.176,13.176,0,0,0,2.768-2.013l3.288,3.321a17.064,17.064,0,0,1-1.879,1.744,11.165,11.165,0,0,1-2.131,1.326,11.041,11.041,0,0,1-2.532.838A15.281,15.281,0,0,1,514.167,53.816Z" transform="translate(-326.853 -19.2)" fill="#fff"/>
      <path id="Path_5750" data-name="Path 5750" d="M581.467,30.679h17.68v4.6h-12.58v4.764h11.071v4.6H586.567v4.932h12.749v4.6H581.467Z" transform="translate(-378.445 -19.949)" fill="#fff"/>
    </g>
  </g>
</svg>
