<svg xmlns="http://www.w3.org/2000/svg" width="209" height="73" viewBox="0 0 209 73">
  <g id="Group_12686" data-name="Group 12686" transform="translate(-182 -213)">
    <rect id="Image_96" data-name="Image 96" width="209" height="73" transform="translate(182 213)" fill="none"/>
    <g id="Layer_x0020_1" transform="translate(198 229.21)">
      <g id="_1421344023328" transform="translate(0 0.001)">
        <path id="Path_5752" data-name="Path 5752" d="M39.964,25.2A20.281,20.281,0,1,1,25.191.608,20.283,20.283,0,0,1,39.964,25.2h0Z" transform="translate(0 -0.001)" fill="#f7931a"/>
        <path id="Path_5753" data-name="Path 5753" d="M1014.83,723.08c.4-2.7-1.652-4.151-4.462-5.119l.912-3.657-2.226-.555-.888,3.561c-.585-.146-1.186-.284-1.784-.42l.894-3.584-2.225-.555-.912,3.656c-.484-.11-.96-.219-1.422-.334l0-.011-3.07-.767-.592,2.378s1.652.379,1.617.4a1.185,1.185,0,0,1,1.037,1.295l-1.039,4.166a1.8,1.8,0,0,1,.231.074l-.235-.058-1.456,5.837a.81.81,0,0,1-1.02.529c.022.032-1.618-.4-1.618-.4l-1.105,2.548,2.9.722c.539.135,1.067.277,1.587.41l-.921,3.7,2.224.555.912-3.66c.607.165,1.2.317,1.774.46l-.909,3.643,2.226.555.921-3.692c3.8.719,6.651.429,7.852-3,.968-2.765-.048-4.359-2.045-5.4a3.55,3.55,0,0,0,2.843-3.269h0Zm-5.087,7.133c-.688,2.765-5.343,1.27-6.852.9l1.222-4.9c1.509.377,6.348,1.122,5.629,4.005Zm.688-7.173c-.628,2.515-4.5,1.237-5.758.924l1.108-4.445c1.257.313,5.3.9,4.65,3.521Z" transform="translate(-985.598 -705.682)" fill="#fff"/>
      </g>
    </g>
    <path id="Path_5754" data-name="Path 5754" d="M-52.78.42q-2.17,0-4.025-.07T-61.88.035V-24.08h12.04a13.858,13.858,0,0,1,4.6.717,7.35,7.35,0,0,1,3.2,2.048,4.556,4.556,0,0,1,1.155,3.08,5.515,5.515,0,0,1-.945,3.413,5.006,5.006,0,0,1-2.87,1.733q4.9.77,4.9,5.775a6.487,6.487,0,0,1-3.168,5.6Q-46.13.42-52.78.42Zm1.47-14.98a3.675,3.675,0,0,0,2.257-.665,2.048,2.048,0,0,0,.892-1.715q0-2.485-3.08-2.485h-2.835v4.865Zm-.14,9.485a5.151,5.151,0,0,0,2.957-.718A2.311,2.311,0,0,0-47.46-7.805,2.591,2.591,0,0,0-48.4-9.958,4.235,4.235,0,0,0-51.1-10.71h-3.01v5.53Q-52.535-5.075-51.45-5.075ZM-30.275.28A5.756,5.756,0,0,1-34.86-1.61,7.569,7.569,0,0,1-36.5-6.755v-10.78h7.42V-7.07a1.681,1.681,0,0,0,.438,1.243,1.539,1.539,0,0,0,1.137.438,2.885,2.885,0,0,0,1.435-.42l.385,4.865a5.452,5.452,0,0,1-2.012.91A10.428,10.428,0,0,1-30.275.28Zm-2.52-20.44a3.99,3.99,0,0,1-2.783-1.032,3.294,3.294,0,0,1-1.137-2.538,3.182,3.182,0,0,1,1.19-2.52,4.086,4.086,0,0,1,2.73-1.015,4.032,4.032,0,0,1,2.783,1.05A3.233,3.233,0,0,1-28.84-23.73a3.217,3.217,0,0,1-1.19,2.555A4.132,4.132,0,0,1-32.795-20.16ZM-16.38.28a6.371,6.371,0,0,1-4.8-1.768A6.716,6.716,0,0,1-22.89-6.37v-6.825h-2.24v-4.34h2.765l3.255-6.615h3.535v6.615h4.06v4.34h-4.06v5.95a1.718,1.718,0,0,0,.56,1.365,2.315,2.315,0,0,0,1.575.49,3.522,3.522,0,0,0,1.715-.42l.28,4.9A8.084,8.084,0,0,1-13.7-.053,11.437,11.437,0,0,1-16.38.28ZM-.525.28A10.442,10.442,0,0,1-5.477-.857a8.306,8.306,0,0,1-3.36-3.2,9.117,9.117,0,0,1-1.208-4.69,8.631,8.631,0,0,1,1.26-4.585,9.023,9.023,0,0,1,3.43-3.255,9.877,9.877,0,0,1,4.83-1.19,9.06,9.06,0,0,1,5.355,1.4l-.665,4.655a12.014,12.014,0,0,0-3.29-.595,3.632,3.632,0,0,0-2.66.962,3.488,3.488,0,0,0-.98,2.608,3.547,3.547,0,0,0,.98,2.625,3.5,3.5,0,0,0,2.59.98,11.193,11.193,0,0,0,3.29-.6L4.76-.84A10.141,10.141,0,0,1,2.345.018,13.831,13.831,0,0,1-.525.28Zm16.87,0A11.472,11.472,0,0,1,11.112-.875a8.734,8.734,0,0,1-3.57-3.2A8.707,8.707,0,0,1,6.265-8.785a8.618,8.618,0,0,1,1.3-4.708,8.616,8.616,0,0,1,3.587-3.167,11.771,11.771,0,0,1,5.233-1.12,11.7,11.7,0,0,1,5.267,1.138A8.536,8.536,0,0,1,25.2-13.475a8.709,8.709,0,0,1,1.26,4.69,8.771,8.771,0,0,1-1.277,4.742,8.615,8.615,0,0,1-3.57,3.185A11.7,11.7,0,0,1,16.345.28Zm.07-5.25a2.991,2.991,0,0,0,2.363-1.067A4.038,4.038,0,0,0,19.7-8.785a4.038,4.038,0,0,0-.927-2.747A2.991,2.991,0,0,0,16.415-12.6a2.991,2.991,0,0,0-2.362,1.068,4.038,4.038,0,0,0-.927,2.747,4.038,4.038,0,0,0,.927,2.747A2.991,2.991,0,0,0,16.415-4.97ZM35.245.28A5.756,5.756,0,0,1,30.66-1.61a7.569,7.569,0,0,1-1.645-5.145v-10.78h7.42V-7.07a1.681,1.681,0,0,0,.438,1.243,1.539,1.539,0,0,0,1.138.438,2.885,2.885,0,0,0,1.435-.42L39.83-.945a5.452,5.452,0,0,1-2.013.91A10.428,10.428,0,0,1,35.245.28Zm-2.52-20.44a3.99,3.99,0,0,1-2.782-1.032A3.294,3.294,0,0,1,28.8-23.73a3.182,3.182,0,0,1,1.19-2.52,4.086,4.086,0,0,1,2.73-1.015,4.032,4.032,0,0,1,2.783,1.05A3.233,3.233,0,0,1,36.68-23.73a3.217,3.217,0,0,1-1.19,2.555A4.132,4.132,0,0,1,32.725-20.16Zm9.135,2.87H48.9v3.57a6.748,6.748,0,0,1,6.44-4.06,6.36,6.36,0,0,1,5.268,2.4A10.388,10.388,0,0,1,62.51-8.75V0H55.16V-9.485a3.608,3.608,0,0,0-.647-2.31,2.184,2.184,0,0,0-1.8-.805,2.913,2.913,0,0,0-1.645.543A3.959,3.959,0,0,0,49.753-10.5a5.1,5.1,0,0,0-.507,2.31V0H41.86Z" transform="translate(313 262.922)" fill="#fff"/>
  </g>
</svg>
