<svg xmlns="http://www.w3.org/2000/svg" width="249.408" height="55.354" viewBox="0 0 249.408 55.354">
  <g id="Group_12693" data-name="Group 12693" transform="translate(-101 -42.909)">
    <g id="noun-raptor-4910997" transform="translate(-1.621 -17.153)">
      <path id="Path_1" data-name="Path 1" d="M209.7,295.983l1.185-2.524.322-.748a3.463,3.463,0,0,0,.177-1.357,1.526,1.526,0,0,0-.7-.772,12.3,12.3,0,0,0-2.048-.811,2.647,2.647,0,0,1-.564-.388,2.171,2.171,0,0,1-.681-1.513,2.05,2.05,0,0,1,.17-.812,2.742,2.742,0,0,1,.678-.9,10.924,10.924,0,0,1,2.021-.521.606.606,0,0,0,.317-.225.263.263,0,0,0,.023-.126l-.293-.586a17.369,17.369,0,0,0-.941-1.5l-.017.027a2.636,2.636,0,0,1-1.381.973q-2.4.5-2.788.651a4.9,4.9,0,0,0-1.588,1.1,1.646,1.646,0,0,0-.47.966q-.044.478-.024,1.487a11.8,11.8,0,0,0-.134,1.773,7.361,7.361,0,0,0,.113.967q1.036.687,1.881,1.2l.406.4a3.156,3.156,0,0,1,.693,1.679,6.521,6.521,0,0,1-.348,2.366,18.157,18.157,0,0,1-1.41,2.753,1.457,1.457,0,0,0-.034.9.47.47,0,0,0,.226.248h0c-.005.027-.01.053-.013.078a4.636,4.636,0,0,0,.057,1.245,2.747,2.747,0,0,1-.191.627l-2.412,2.5-.232.29a4.687,4.687,0,0,0-.678,2,3.778,3.778,0,0,0,.212,1.436,3.053,3.053,0,0,0,.827,1.25l.039-.071.146-.859.215-.754a13.975,13.975,0,0,1,.773-1.7,5.167,5.167,0,0,1,1.743-1.778h0a19.33,19.33,0,0,0-.863,2.259,2.988,2.988,0,0,0-.062.746,5.585,5.585,0,0,0,.651,1.644q.594.874.81.862a.085.085,0,0,0,.037-.01l.035-.019a8.47,8.47,0,0,1-.055-1.843,2.942,2.942,0,0,1,.235-.968,21.118,21.118,0,0,0,2.4-2.96.43.43,0,0,0,.1.045,2.056,2.056,0,0,1,.663.126.673.673,0,0,1,.326.426,2.365,2.365,0,0,1-.046,1.032,3.446,3.446,0,0,1-.494.985c-.02.074-.007.115.039.12h.006a2.26,2.26,0,0,0,1.421-.53,2.77,2.77,0,0,0,.515-.589l.217-.376a5.3,5.3,0,0,0,.353-.912l.046-.243a3.752,3.752,0,0,0,.043-.482,3.588,3.588,0,0,0-.286-1.493,4.379,4.379,0,0,0-.426-.719q-.229-.248-.4-.443h0c-.014-.054-.032-.11-.052-.171a17.032,17.032,0,0,1-.8-2.068,6.4,6.4,0,0,1-.061-1.974,6.526,6.526,0,0,1,.366-1.424Zm-3.177,5.023c0-.079,0-.164,0-.255q0-.034,0-.06h0a.806.806,0,0,1,.01-.092c0-.017.012-.026.02-.027h0a.533.533,0,0,1,.138.231h0c0,.012.009.025.013.038.043.121.1.325.162.611.027.121.049.236.066.345q.026.239.072.548h0q.02.136.044.287c0,.039.008.077.011.113a1.907,1.907,0,0,1-.1.727q-.077.234-.233.243h-.01l-.386-.343a6.537,6.537,0,0,0,.213-1.058c.011-.15.016-.308.014-.474,0-.121-.015-.4-.037-.836Zm-1.35.885q.018-.189.043-.843c0-.028,0-.054.006-.08a4.961,4.961,0,0,1,.092-.584.3.3,0,0,1,.081-.158h.008q.073.01.242.837h0q.03.2.1.818a1.274,1.274,0,0,1,0,.284.3.3,0,0,1-.053.12.518.518,0,0,1-.086.089l-.522.1Q205.151,302.136,205.174,301.891Zm-.219,1.822c-.049.077-.106.156-.17.238a5.38,5.38,0,0,1-.479.525,1.608,1.608,0,0,1-.85.487.423.423,0,0,1-.079,0,.24.24,0,0,1-.188-.219.654.654,0,0,1,.01-.175,1.664,1.664,0,0,1,.079-.254l0-.037.021-.05a5.99,5.99,0,0,1,.833-.941,1.493,1.493,0,0,1,.349-.194q.2-.032.378-.043h.019c.018,0,.09-.019.215-.053q.23-.1.612-.292h.005s0,.019-.022.056c-.092.13-.168.242-.224.338l-.345.29A1.8,1.8,0,0,1,204.955,303.713Zm2.155,1.1a2.019,2.019,0,0,1-.176.344l-.6.446q-.546.481-1.153,1.05a.541.541,0,0,1-.158.1.082.082,0,0,1-.085-.054.553.553,0,0,1-.041-.233,2.291,2.291,0,0,1,.087-.5,3.881,3.881,0,0,1,.7-1.316.251.251,0,0,1,.151-.082.142.142,0,0,1,.089.027.176.176,0,0,1,.056.074,1.377,1.377,0,0,0,.064.288.245.245,0,0,0,.165.08l.017,0a1.081,1.081,0,0,0,.326-.137,4.966,4.966,0,0,0,.52-.409.114.114,0,0,1,.043-.02h0c.024,0,.036.025.038.071A1.06,1.06,0,0,1,207.11,304.815Z" transform="translate(-86.014 -195.061)" fill="#fff"/>
      <path id="Path_2" data-name="Path 2" d="M164.208,77.465l-3.015-4.327a25.062,25.062,0,0,0-2.5-2.362q-.979-.713-4.022-2.435a24.053,24.053,0,0,0-4.255-.809q-1.93-.037-3.77.075-1.029.063-2.031.172l-.427.06q-1.848.283-5.94,1.27l-3.211.2-4.387.835q-.321.013-.665.034-3.108.189-8.289,1l-2.743.072-2.093.39a7.1,7.1,0,0,1-.8.013l-1.481-.278c-.118-.016-.223-.025-.314-.028l-.021.037a.759.759,0,0,0-.047.1h0a.637.637,0,0,0-.038.144h0a.868.868,0,0,0-.006.209,6.462,6.462,0,0,1,.117.763l.01.128h0l0,.056h0l.006.208h0c0,.127,0,.257,0,.388l0,.015h0a5.577,5.577,0,0,1-.208.672h0c-.058.14-.128.3-.209.472h0c-.063.121-.13.237-.2.348h0a7.582,7.582,0,0,1-.637.743h0a13.452,13.452,0,0,1-1.115.922h0a7.954,7.954,0,0,1-.9.514h0l-.092.042q.377-.295.731-.614h0a13.122,13.122,0,0,0,.964-.943h0l.052-.056a6.819,6.819,0,0,0,.584-.718h0c.029-.041.057-.081.084-.12a1.469,1.469,0,0,0,.1-.152,3.72,3.72,0,0,0,.229-.42h0l.011-.021c.012-.025.023-.05.034-.075h0l.023-.046c.009-.024.018-.048.027-.074h0l0-.011a.041.041,0,0,0,0-.007c.017-.055.032-.114.046-.179h0a2.892,2.892,0,0,0,.068-.615.212.212,0,0,0,0-.116.3.3,0,0,0-.023-.1h0v-.006h0c.006-.016.012-.031.018-.048a.356.356,0,0,0-.087-.2c-.023-.079-.048-.161-.076-.246h0q-.072-.223-.171-.519h0a.069.069,0,0,1,0-.01.6.6,0,0,1,.06-.282h0a.524.524,0,0,1,.052-.078h0a.535.535,0,0,1,.1-.093l-.075,0-.256.021-.077,0a6.172,6.172,0,0,0-1.313.306q-.3.109-.61.254l-.077-.021-.186.152c-.081.043-.161.087-.241.133a8.57,8.57,0,0,0-1.167.79,5.1,5.1,0,0,0-.644.619,3.663,3.663,0,0,0-.319.425l-.022.039q.07-.149.128-.268a5,5,0,0,1,1.236-1.4l.356-.25a7.763,7.763,0,0,1,.849-.471,13.417,13.417,0,0,1,1.616-.637q.607-.2,1.3-.378a.984.984,0,0,0,.408-.356.622.622,0,0,0,.081-.354h0l.347-.457.174.74,2.639-.733a3.141,3.141,0,0,0,.822-1.607l-.406-.231-5.159.649a18.058,18.058,0,0,0-3.356-.5q-.98-.029-2.008.034-1.284.078-2.643.3l.062-.116,2.488-.728,6.012.46,3.238-.505,1.187.138a1.253,1.253,0,0,0,.585-.419L118.46,65.9l.262-.81a2.167,2.167,0,0,1,.02-1.226,7.634,7.634,0,0,0-1.674-1.387c0,.007-.016.011-.033.012a40.626,40.626,0,0,1-5.428-2.079,29.028,29.028,0,0,0-4.779-.347l-.146.036c0-.017-.008-.025-.028-.024a21.494,21.494,0,0,0-3.176,2.394,36.326,36.326,0,0,0-.858,4.215,43.014,43.014,0,0,0,.306,5.389l.779,3.156a26.8,26.8,0,0,1,1.3,3.425l-.177,4.109.287.779.756,1.172a15.956,15.956,0,0,1-.776,3.471,10.662,10.662,0,0,1-.592,4.507l.32,1.158.181.237h0a6.322,6.322,0,0,0,.6,1.289,6.873,6.873,0,0,0,1.167,1.181,6,6,0,0,0,1.061.56.381.381,0,0,0,.153.044.041.041,0,0,0,.042-.031,18.735,18.735,0,0,0-.655-1.937l-.147-.564a.063.063,0,0,1,.029-.081,4.369,4.369,0,0,0,3.038,1.39,2.317,2.317,0,0,0,.3-.037.182.182,0,0,0-.047-.163l-1.436-1.875a1.416,1.416,0,0,1-.224-.342.079.079,0,0,1,.079-.058.22.22,0,0,1,.046,0,4.812,4.812,0,0,0,1.072.206.251.251,0,0,0,.04-.005q.84-.133.828-.313A8.085,8.085,0,0,1,109.477,92a4.307,4.307,0,0,1-.637-1.082,2.534,2.534,0,0,1-.607-.713l-.3-.522h0c.006-.188.027-.434.062-.742q.068-.39.11-.66,1.483-.932,1.337-1.091l3.859,2.5a.134.134,0,0,0,.06.011.3.3,0,0,0,.193-.134h0q-1.214,3.846-.544,3.8a.282.282,0,0,0,.038,0l-.835.931a4.961,4.961,0,0,0,.152,1.788,5.945,5.945,0,0,0,1.157,1.826q.1-3.407.688-3.444a.26.26,0,0,1,.138.034q-.6,1.434,1.879,3.712l-.024-2.117c.046-.355.121-.536.224-.542a.161.161,0,0,1,.114.053,17.123,17.123,0,0,1,.232-2.682l-.181-1.117.448-1.007a7.717,7.717,0,0,1,1.428-1.21l3.81-1.2.68-.528.2-1.008a27.811,27.811,0,0,1-1.28-4.528h0l1.231,2.3L124.2,89a3.245,3.245,0,0,0,1.682.757h0l.345.867a9.4,9.4,0,0,0,1.483,2.446h0q.04.341.078.662l.3.448,2.171,1.72a8.023,8.023,0,0,0,1.808.331.6.6,0,0,0,.078-.01l.683.474a12.705,12.705,0,0,1,.305,2.864l-.5,2.7-.909,1.517a7.275,7.275,0,0,0-.436,1.63l-.512.7a.109.109,0,0,1-.072.038.1.1,0,0,1-.057-.015l-.8-1.479a1.671,1.671,0,0,0-.822-.126,4.918,4.918,0,0,0-1.28.289q-.671.058-1.757,3.052a3.818,3.818,0,0,1,.626-.927h0a3.276,3.276,0,0,1,.342-.182,2.6,2.6,0,0,1,.376-.126,3.126,3.126,0,0,1,.351-.047.569.569,0,0,1,.348.054.484.484,0,0,1,.158.156.58.58,0,0,1,.045.089.839.839,0,0,1,.044.157h0s0,0,.006.014q.021.1.051.975a1.141,1.141,0,0,0,.02.128h0a.8.8,0,0,1-.044.069q.775,1.657,1.626,1.6a1.469,1.469,0,0,0,.949-.562h0a21.972,21.972,0,0,0-1.159,1.975,1.263,1.263,0,0,0,.082.961.615.615,0,0,0,.09.159h0c-.01.08-.018.169-.026.268a6.873,6.873,0,0,0-.013.7,2,2,0,0,0,.067.426l.051.172.047.111.062.112a1.868,1.868,0,0,0,.17.229,3.059,3.059,0,0,0,.367.353l.152.12a.241.241,0,0,0,.114.042h.007c.021,0,.034-.022.038-.061a5.659,5.659,0,0,1-.051-.9,2.57,2.57,0,0,1,.106-.686c.008-.029.018-.058.029-.087l.134.069a19.3,19.3,0,0,0,3.091-3.378h0a4.724,4.724,0,0,0-.4,1.88,3.319,3.319,0,0,0,.969,1.187h0c0,.043-.007.088-.011.134a2.45,2.45,0,0,1-.07.4l-.333.886c-.018.064-.01.1.023.093h0a2.579,2.579,0,0,0,.326-.259q.113-.1.231-.23c.1-.109.2-.229.31-.362h0l.007.056.053-.132h0l.12-.158c.106-.16.188-.292.246-.4l.093-.2h0l.149-.148.533-.986.192-2.119-.409-6.473-.2-1.016q.28-5.07.192-6.23h0c.012-.058.024-.118.036-.182.007-.047.018-.129.031-.246a5.318,5.318,0,0,0,.012-.816,5.141,5.141,0,0,0-.261-1.107,3.532,3.532,0,0,0-.229-.457l-.255-.429c-.016-.015-.027-.022-.033-.021h0c-.005,0-.008.009-.008.028.016.236.025.427.027.574,0,.171,0,.261-.006.271a10.019,10.019,0,0,1-.216,1.123q-.13.466-.309.956c-.024.072-.057.16-.1.263h0q-.192.2-.412.475a8.355,8.355,0,0,0,0-6.617,1.28,1.28,0,0,0-.521-.1.589.589,0,0,0-.386.162l-1.559,3.425c-.029.051-.055.078-.076.079s-.034-.016-.048-.051l.15-1.682.942-2.6h0c.12-.018.293-.048.521-.09a.877.877,0,0,1,.358.064,5.506,5.506,0,0,1,.864.574.131.131,0,0,0,.074.021.148.148,0,0,0,.048-.013.588.588,0,0,0-.03-.2q-.3-1.1-.408-1.652-.068-.348-.128-.894-.119-1.4-.169-1.692l-.016-.1h0l.117-2.639-.808-5.489a6.1,6.1,0,0,0-3.442-2.322c.132-.019.264-.031.4-.039a5.151,5.151,0,0,1,2.853.677q.643.3,1.555,3.669,1.09-1.334,7.573-5.279l5.241-1.714c.164-.011.326-.022.486-.031a32.871,32.871,0,0,1,3.823-.036q5.141,1.183,7.088,2.639a37.023,37.023,0,0,1,5.73,5.715q.393-.681-.554-2.528ZM115.482,63.6l.552-.3.059-.008h0a.893.893,0,0,1,.124.007,1.4,1.4,0,0,1,.148.051.946.946,0,0,1,.133.115.746.746,0,0,1,.139.445,2.878,2.878,0,0,1-.011.292l-.053.065-.095.08-.058.041a1.436,1.436,0,0,1-.138.058.7.7,0,0,1-.13.022h0a.99.99,0,0,1-.176-.057c-.011,0-.082-.049-.211-.132q-.229-.394-.374-.626h0c0-.01,0-.019-.005-.029a.425.425,0,0,0,.1-.03ZM111.75,62.04h0a3.9,3.9,0,0,1,.926.208c.173.058.352.128.542.209s.388.175.595.281l.317.166.3.172h0c-.181-.031-.293-.051-.337-.061q-.672-.128-1.768-.378c-.1-.02-.3-.051-.585-.093h0c-.038-.129-.085-.275-.139-.441.018-.028.067-.049.149-.063Zm-4.273.786a2.331,2.331,0,0,1,.154-.264,3.332,3.332,0,0,1,.289-.365,1.265,1.265,0,0,1,.736-.294h.073a1.9,1.9,0,0,1,.746.231,2.239,2.239,0,0,1,.278.22q.1.1.61.619l.19.155a1.759,1.759,0,0,0,.381.108h.009a.923.923,0,0,0-.185.182,8.423,8.423,0,0,1-.486,1.032h-.006a.65.65,0,0,0-.137.042q-.163.118-.547.362c-.146.091-.295.178-.443.261a2.489,2.489,0,0,1-.539.131h-.032a1.518,1.518,0,0,1-.553-.072,1.26,1.26,0,0,1-.387-.382,1.728,1.728,0,0,1-.166-.561q0-.234.042-.9a.9.9,0,0,0-.1-.331,1.726,1.726,0,0,1,.073-.173ZM118.412,88.1h0l-.024,0-.021,0h0l.011,0,.028-.006.026,0Zm2.417-1-.287.151-1.044.364a1.047,1.047,0,0,1-.2.1q-.338.142-.839.34l-.751.207-1.63.32-.467.1-.515.149-.786.3c.082-.081.2-.185.358-.311h0l-.025,0c-.007,0-.009,0,0-.006l-.637.355a11.781,11.781,0,0,0,.873-.9l.41.131a1.512,1.512,0,0,1,.333-.121l.07,0a8.237,8.237,0,0,0,.892-.119q.56-.123,2.44-.667a6.894,6.894,0,0,0,.929-.342.544.544,0,0,0,.19-.22l.027-1.636.4,1.065.308.566.012.091a.15.15,0,0,1-.05.082Zm9.458,18.606-.023-.066h.111C130.381,105.658,130.352,105.679,130.287,105.713Zm4.995,3.336.016-.081q.1-.284.193-.629.072-.547.08-.747.014-.349,0-.892l0-.082q-.1-1.142-.1-1.175c-.005-.091-.011-.265-.016-.521l.093-.951c.005-.054.01-.147.016-.28l.047.138c.11.4.179.663.207.8l.087.541.133,1.116q0,.479.008,1.022c0,.178.006.278.01.3l-.017.665c0,.043,0,.11.012.2.022.124.044.224.066.3,0,.005.043.1.129.284l.03.092.051.263a4.062,4.062,0,0,1-.671.148.264.264,0,0,1-.077,0c-.086-.018-.168-.1-.247-.251l-.049-.166Zm-.364,2.216a1.978,1.978,0,0,1,.039-.331,2.429,2.429,0,0,1,.17-.365,1.13,1.13,0,0,1,.225-.224.617.617,0,0,1,.182-.064h0l.134,0,.084.017.075.032.068.047a.809.809,0,0,1,.217.465l0,.086c-.01.142-.019.26-.029.355s-.018.165-.033.243l-.191.232h0l-.547.179a.949.949,0,0,1-.105-.045h0c-.059-.061-.092-.1-.1-.1a1.789,1.789,0,0,1-.166-.222l-.031-.028Zm-3.383-.111-.027.116-.08.182q-.243.313-.495.661l-.051.073h0a.945.945,0,0,1-.117.015.619.619,0,0,1-.165-.011.569.569,0,0,1-.17-.066,2.2,2.2,0,0,1-.288-.235l-.02-.011h0c-.025-.073-.053-.152-.082-.239l.01-.08a1.257,1.257,0,0,1,.078-.284,3.609,3.609,0,0,1,.232-.479,1.92,1.92,0,0,1,.245-.283,1.548,1.548,0,0,1,.2-.138l.129.047a1.39,1.39,0,0,1,.22.1,1.464,1.464,0,0,1,.268.223.569.569,0,0,1,.092.17.544.544,0,0,1,.026.139.468.468,0,0,1,0,.1Zm1.646-7.594c.037.011.065.062.086.155a5.191,5.191,0,0,1-.039.6q-.223,1.415-.416,2.382l-.761,2.192a3.5,3.5,0,0,1-.653.778c-.023-.012-.048-.072-.075-.18a.948.948,0,0,1,0-.191l.037-.182.24-.714.144-.566q.006-.011.029-.333a.577.577,0,0,0-.015-.164l.456-1.24.112-.628.59-1.511a2.212,2.212,0,0,1,.264-.394Zm.065-31.209a.745.745,0,0,0-.167-.069q-.08-.031-.7-.24-.325-.093-1.133-.241a14.218,14.218,0,0,0-2.109-.066q-.178.011-.336.029-.644.1-.734.13-.687.173-1.537.431-.387.128-3.163,1.244.775-.79.994-.964a17.606,17.606,0,0,1,1.562-.912q.981-.425,1.3-.541a11.259,11.259,0,0,1,1.4-.4l.027,0,.162.028.782.2q2.045.68,2.907.9.412.116,1.4.295Zm19.536-3.1q-.727-.1-1-.114L148.167,69q-1.842.05-2.454.087c-.112.006-.193.014-.244.019a11.773,11.773,0,0,0-1.879.323q-1.25.35-1.708.5a19.381,19.381,0,0,1-2.123.862c-.232.071-.517.139-.855.206a3.881,3.881,0,0,1-.447.048c-.062,0-.129.007-.2.01h0a7.969,7.969,0,0,1-.877-.042,11.978,11.978,0,0,1-2.267-.442,11.172,11.172,0,0,0,1.308-.266l2.562-.143q1.528-.47,2.2-.646l4.483-.851c.069-.011.228-.027.478-.05.03,0,.112,0,.244-.012q.641-.039,2.872-.208l.6-.018a9.288,9.288,0,0,1,4.539,1.184q-.4-.1-1.624-.3Z" transform="translate(0 0)" fill="#fff"/>
      <path id="Path_3" data-name="Path 3" d="M142.821,77.858h.024c.03.006.047.017.051.032a4,4,0,0,0,.048.559,5.856,5.856,0,0,0,.179.763h0c.007,0,.012-.018.015-.051,0-.185,0-.315.01-.392a2.593,2.593,0,0,1,.058-.334,1.96,1.96,0,0,1,.084-.262.273.273,0,0,1,.117-.126h0a.291.291,0,0,1,.174.068,2.579,2.579,0,0,1,.341.3,1.055,1.055,0,0,1,.174.253,1.269,1.269,0,0,1,.089.249.1.1,0,0,1-.023.067l-.209.186a2.177,2.177,0,0,1-.271.194,1.637,1.637,0,0,1-.587.221.877.877,0,0,1-.472-.122,2.416,2.416,0,0,1-.5-.409.015.015,0,0,0-.013,0,.021.021,0,0,0-.013.007,1.034,1.034,0,0,0,.276.785,1.493,1.493,0,0,0,.515.343.936.936,0,0,0,.375.038h.017a1.55,1.55,0,0,0,1.016-.536,2,2,0,0,0,.315-.414,1.469,1.469,0,0,0,.128-.562,1.169,1.169,0,0,0-.3-.481,2.195,2.195,0,0,0-.441-.385,2.227,2.227,0,0,0-.53-.257,1.752,1.752,0,0,0-.509-.056l-.061.006a.861.861,0,0,0-.335.106.728.728,0,0,0-.2.185,3.117,3.117,0,0,0-.323.9c.246-.4.4-.629.451-.691a.54.54,0,0,1,.326-.178Z" transform="translate(-34.463 -15.265)" fill="#fff"/>
      <path id="Path_4" data-name="Path 4" d="M213.3,342.6l0,.008,0,.007,0,.005.005,0,.005,0h.008l-.025-.037,0-.007-.01-.012,0-.006h0l0,.013,0,.012Z" transform="translate(-96.744 -246.955)" fill="#fff"/>
      <path id="Path_5" data-name="Path 5" d="M213.746,343.215l.009.014.01.013.01.011.01.01.011.008.012.006a1.085,1.085,0,0,0-.085-.116h0l.007.019.008.018Z" transform="translate(-97.122 -247.477)" fill="#fff"/>
      <path id="Path_6" data-name="Path 6" d="M214.428,344.128l-.01-.013h0l0,0a.414.414,0,0,0,.026.037Z" transform="translate(-97.73 -248.31)" fill="#fff"/>
      <path id="Path_7" data-name="Path 7" d="M213.663,343.089l0,0-.007-.007h0l0,0Z" transform="translate(-97.066 -247.41)" fill="#fff"/>
    </g>
    <g id="Group_12683" data-name="Group 12683" transform="translate(11)">
      <path id="Path_5739" data-name="Path 5739" d="M12.768-13.888c0,2.38-1.428,4.116-4.62,4.116H4.2V-17.92H8.12C11.424-17.92,12.768-16.352,12.768-13.888ZM2.24-19.572V0H4.2V-8.176H7.812L12.656,0h2.352L9.968-8.316a5.4,5.4,0,0,0,4.816-5.572c0-3.22-2.128-5.684-6.664-5.684ZM35.924,0H38L30.884-19.32H28.672L21.532,0H23.6l1.708-4.648h8.9Zm-2.3-6.272H25.9l3.864-10.584Zm13.664-3.752v-7.9H51.24c3.3,0,4.592,1.456,4.592,3.976,0,2.408-1.288,3.92-4.592,3.92Zm10.556-3.92c0-3.22-2.072-5.628-6.608-5.628H45.332V0h1.96V-8.344H51.24C55.832-8.344,57.848-10.78,57.848-13.944Zm6.076-4h5.46V0h1.96V-17.948h5.432v-1.624H63.924ZM102.564-9.8c0-5.852-4.172-10-9.688-10-5.488,0-9.688,4.144-9.688,10,0,5.88,4.2,10,9.688,10C98.392.2,102.564-3.92,102.564-9.8ZM85.2-9.8c0-5.124,3.332-8.26,7.672-8.26s7.672,3.136,7.672,8.26-3.332,8.288-7.672,8.288S85.2-4.676,85.2-9.8Zm35.672-4.088c0,2.38-1.428,4.116-4.62,4.116h-3.948V-17.92h3.92C119.532-17.92,120.876-16.352,120.876-13.888Zm-10.528-5.684V0h1.96V-8.176h3.612L120.764,0h2.352l-5.04-8.316a5.4,5.4,0,0,0,4.816-5.572c0-3.22-2.128-5.684-6.664-5.684Z" transform="translate(144 88.263)" fill="#fff"/>
      <path id="Path_5740" data-name="Path 5740" d="M14.532-19.656v12.18L6.524-19.656H1.736V0H6.524V-12.124L14.532,0H19.32V-19.656ZM25.872,0H30.66V-7.952h5.992v-3.724H30.66V-15.82h8.008v-3.836h-12.8ZM43.2-15.82h5.208V0H53.2V-15.82h5.208v-3.836H43.2Z" transform="translate(281 88.263)" fill="#fff"/>
    </g>
  </g>
</svg>
