<svg xmlns="http://www.w3.org/2000/svg" width="303.47" height="30.1" viewBox="0 0 303.47 30.1">
  <g id="Group_12684" data-name="Group 12684" transform="translate(-164 -58.85)">
    <path id="Path_5739" data-name="Path 5739" d="M-121.17.56q-6.58,0-8.05-6.09l-.875-3.605h-1.645V0h-7.665V-24.08H-128.8a14.554,14.554,0,0,1,5.3.892,8.122,8.122,0,0,1,3.552,2.5,5.852,5.852,0,0,1,1.26,3.71,6.6,6.6,0,0,1-1.138,3.938,8.07,8.07,0,0,1-3.518,2.608q.245,1.33.56,2.415a3.487,3.487,0,0,0,1.155,1.855,3.65,3.65,0,0,0,2.135.525,13.029,13.029,0,0,0,1.54-.14V-.07A8.968,8.968,0,0,1-121.17.56Zm-9.24-14.595a8.285,8.285,0,0,0,3.657-.577,2.061,2.061,0,0,0,1.068-1.978,1.886,1.886,0,0,0-.875-1.733,5.414,5.414,0,0,0-2.765-.542h-2.415v4.83ZM-107.765.28a8.017,8.017,0,0,1-4.253-1.208,9.028,9.028,0,0,1-3.167-3.29,9.18,9.18,0,0,1-1.19-4.637,8.923,8.923,0,0,1,1.19-4.568,8.649,8.649,0,0,1,3.185-3.2,8.32,8.32,0,0,1,4.235-1.155,6.067,6.067,0,0,1,3.378,1.015,6.245,6.245,0,0,1,2.362,3.045v-4.06h7.35V0h-7.35V-3.255A5.953,5.953,0,0,1-107.765.28Zm2.275-5.53a3.269,3.269,0,0,0,2.4-1,3.5,3.5,0,0,0,1.067-2.363v-.28a3.408,3.408,0,0,0-1.1-2.38,3.336,3.336,0,0,0-2.362-.98,3.408,3.408,0,0,0-2.5,1.033,3.367,3.367,0,0,0-1.033,2.467,3.323,3.323,0,0,0,1.05,2.485A3.455,3.455,0,0,0-105.49-5.25Zm14.35-12.04h7.385v3.045A5.841,5.841,0,0,1-78.05-17.78a8.322,8.322,0,0,1,4.322,1.173,8.4,8.4,0,0,1,3.115,3.238,9.414,9.414,0,0,1,1.137,4.62,9.191,9.191,0,0,1-1.173,4.62A8.656,8.656,0,0,1-73.8-.892,8.134,8.134,0,0,1-78.015.28a5.953,5.953,0,0,1-5.74-3.535v7.8l-7.385,1.4ZM-80.255-5.25a3.284,3.284,0,0,0,2.45-1.05A3.415,3.415,0,0,0-76.79-8.75a3.351,3.351,0,0,0-1.033-2.485,3.356,3.356,0,0,0-2.432-1.015,3.368,3.368,0,0,0-2.45,1A3.2,3.2,0,0,0-83.72-8.89v.14a3.351,3.351,0,0,0,1.033,2.485A3.356,3.356,0,0,0-80.255-5.25ZM-59.29.28a6.371,6.371,0,0,1-4.795-1.768A6.716,6.716,0,0,1-65.8-6.37v-6.825h-2.24v-4.34h2.765l3.255-6.615h3.535v6.615h4.06v4.34h-4.06v5.95a1.718,1.718,0,0,0,.56,1.365,2.315,2.315,0,0,0,1.575.49,3.522,3.522,0,0,0,1.715-.42l.28,4.9a8.084,8.084,0,0,1-2.257.858A11.437,11.437,0,0,1-59.29.28Zm16.415,0A11.472,11.472,0,0,1-48.108-.875a8.734,8.734,0,0,1-3.57-3.2,8.707,8.707,0,0,1-1.278-4.707,8.618,8.618,0,0,1,1.295-4.708,8.616,8.616,0,0,1,3.588-3.167,11.771,11.771,0,0,1,5.233-1.12,11.7,11.7,0,0,1,5.267,1.138,8.536,8.536,0,0,1,3.552,3.168,8.709,8.709,0,0,1,1.26,4.69,8.771,8.771,0,0,1-1.277,4.742,8.615,8.615,0,0,1-3.57,3.185A11.7,11.7,0,0,1-42.875.28Zm.07-5.25a2.991,2.991,0,0,0,2.362-1.067,4.038,4.038,0,0,0,.928-2.747,4.038,4.038,0,0,0-.928-2.747A2.991,2.991,0,0,0-42.805-12.6a2.991,2.991,0,0,0-2.363,1.068A4.038,4.038,0,0,0-46.1-8.785a4.038,4.038,0,0,0,.927,2.747A2.991,2.991,0,0,0-42.805-4.97Zm12.67-12.32h7.385v3.57a6.6,6.6,0,0,1,2.188-3.062,5.387,5.387,0,0,1,3.238-1l1.015,5.705a12.372,12.372,0,0,0-4.882.717A2.366,2.366,0,0,0-22.75-9.1V0h-7.385Zm22.68-6.79H-.42L9.17-11.1V-24.08h6.265V0h-7l-9.66-12.53V0h-6.23ZM28.35.28A11.038,11.038,0,0,1,23.187-.892a8.784,8.784,0,0,1-3.517-3.22A8.668,8.668,0,0,1,18.41-8.75a8.706,8.706,0,0,1,1.3-4.725,8.7,8.7,0,0,1,3.5-3.185,10.663,10.663,0,0,1,4.9-1.12,8.249,8.249,0,0,1,4.427,1.138,7.09,7.09,0,0,1,2.748,3.08A10.149,10.149,0,0,1,36.19-9.2a4.17,4.17,0,0,1-.07.91L25.62-6.93a3.092,3.092,0,0,0,1.365,1.767,4.966,4.966,0,0,0,2.485.543,12.775,12.775,0,0,0,5.145-1.225l.875,4.69A17.5,17.5,0,0,1,28.35.28Zm2.415-11.62a2.56,2.56,0,0,0-2.66-2.2,2.393,2.393,0,0,0-1.995.945,4.036,4.036,0,0,0-.77,2.45ZM46.41.28a6.371,6.371,0,0,1-4.8-1.768A6.716,6.716,0,0,1,39.9-6.37v-6.825H37.66v-4.34h2.765L43.68-24.15h3.535v6.615h4.06v4.34h-4.06v5.95a1.718,1.718,0,0,0,.56,1.365,2.315,2.315,0,0,0,1.575.49,3.522,3.522,0,0,0,1.715-.42l.28,4.9a8.084,8.084,0,0,1-2.257.858A11.437,11.437,0,0,1,46.41.28Zm6.51-17.815h7.14L62.055-6.16,64.47-17.535h6.02L72.94-5.88l1.995-11.655h5.74L77.035,0H68.67L66.71-9.275,64.855,0H56.77ZM92.12.28A11.472,11.472,0,0,1,86.887-.875a8.734,8.734,0,0,1-3.57-3.2A8.707,8.707,0,0,1,82.04-8.785a8.618,8.618,0,0,1,1.295-4.708,8.616,8.616,0,0,1,3.588-3.167,11.771,11.771,0,0,1,5.232-1.12,11.7,11.7,0,0,1,5.268,1.138,8.536,8.536,0,0,1,3.552,3.168,8.709,8.709,0,0,1,1.26,4.69,8.771,8.771,0,0,1-1.277,4.742,8.615,8.615,0,0,1-3.57,3.185A11.7,11.7,0,0,1,92.12.28Zm.07-5.25a2.991,2.991,0,0,0,2.362-1.067,4.038,4.038,0,0,0,.928-2.747,4.038,4.038,0,0,0-.928-2.747A2.991,2.991,0,0,0,92.19-12.6a2.991,2.991,0,0,0-2.363,1.068A4.038,4.038,0,0,0,88.9-8.785a4.038,4.038,0,0,0,.927,2.747A2.991,2.991,0,0,0,92.19-4.97Zm12.67-12.32h7.385v3.57a6.6,6.6,0,0,1,2.188-3.062,5.387,5.387,0,0,1,3.237-1l1.015,5.705a12.372,12.372,0,0,0-4.882.717A2.366,2.366,0,0,0,112.245-9.1V0H104.86ZM138.215.28a9.627,9.627,0,0,1-3.762-.612,5.159,5.159,0,0,1-2.328-2.048,14.9,14.9,0,0,1-1.61-4.095L128.45-4.83V0h-7.42l.035-23.065,7.42-1.085-.035,11.97,8.995-7.35,4.025,5.5-5.635,3.92a8.8,8.8,0,0,0,1.208,3.71,2.726,2.726,0,0,0,2.327,1.05,6.6,6.6,0,0,0,1.5-.21l-.7,5.74Q139.125.28,138.215.28Z" transform="translate(326 83)" fill="#fff"/>
    <circle id="Ellipse_192" data-name="Ellipse 192" cx="6.5" cy="6.5" r="6.5" transform="translate(164 66)" fill="#4caf50"/>
  </g>
</svg>
